<svg width="122" height="122" viewBox="0 0 122 122" fill="none" xmlns="http://www.w3.org/2000/svg">
<g clip-path="url(#clip0_3417_1550)">
<rect x="2" y="2" width="118" height="116" rx="23" stroke="white" stroke-width="4"/>
<rect x="14" y="14" width="93" height="92" rx="14" fill="url(#paint0_linear_3417_1550)"/>
</g>
<path d="M60.2858 38.9163C55.8859 38.9202 51.5872 40.2377 47.9407 42.6999L44.8058 39.5434C44.5018 39.2434 44.1157 39.0401 43.6963 38.9593C43.2769 38.8785 42.8429 38.9236 42.4492 39.0892C42.0543 39.2514 41.7164 39.527 41.4778 39.8809C41.2393 40.2349 41.1109 40.6515 41.1087 41.0783V51.8884C41.1087 52.4618 41.3365 53.0119 41.742 53.4173C42.1475 53.8228 42.6973 54.0505 43.2707 54.0505H54.0808C54.5077 54.0483 54.9243 53.9198 55.2782 53.6812C55.6322 53.4427 55.9077 53.1048 56.0699 52.71C56.2354 52.3163 56.2807 51.8824 56.1999 51.463C56.119 51.0436 55.9159 50.6575 55.6159 50.3535L54.2755 49.0131C56.68 47.818 59.396 47.3985 62.0489 47.8125C64.7019 48.2265 67.1609 49.4534 69.087 51.3242C71.0131 53.195 72.3113 55.6173 72.8023 58.2571C73.2934 60.8968 72.9531 63.6239 71.8286 66.0622C70.7041 68.5004 68.8506 70.5297 66.524 71.87C64.1973 73.2102 61.5121 73.7955 58.8388 73.5451C56.1654 73.2946 53.6357 72.2206 51.5986 70.4715C49.5614 68.7224 48.1171 66.3842 47.4651 63.7796C47.3411 63.2113 47.1036 62.6739 46.767 62.1995C46.4304 61.7251 46.0017 61.3235 45.5063 61.0187C45.0108 60.7139 44.459 60.5122 43.8838 60.4257C43.3086 60.3391 42.7219 60.3694 42.1587 60.5149C41.5955 60.6604 41.0675 60.9182 40.6062 61.2726C40.145 61.627 39.7599 62.0708 39.4741 62.5774C39.1884 63.0841 39.0078 63.643 38.9431 64.2211C38.8785 64.7992 38.9312 65.3843 39.0981 65.9416C40.0681 69.9286 42.1408 73.562 45.0791 76.4263C48.0174 79.2905 51.7027 81.2698 55.7132 82.1377C59.7237 83.0056 63.8976 82.7272 67.7572 81.3341C71.6169 79.941 75.0065 77.4895 77.5382 74.2603C80.0699 71.0311 81.6415 67.1544 82.0732 63.0738C82.5049 58.9933 81.7793 54.8737 79.9793 51.1862C78.1793 47.4987 75.3778 44.3923 71.8951 42.2224C68.4124 40.0526 64.3892 38.9068 60.2858 38.9163Z" fill="white"/>
<defs>
<linearGradient id="paint0_linear_3417_1550" x1="60.5" y1="14" x2="60.5" y2="106" gradientUnits="userSpaceOnUse">
<stop stop-color="#FF0003"/>
<stop offset="1" stop-color="#570001"/>
</linearGradient>
<clipPath id="clip0_3417_1550">
<rect width="121.073" height="121.073" fill="white"/>
</clipPath>
</defs>
</svg>
