<svg width="123" height="122" viewBox="0 0 123 122" fill="none" xmlns="http://www.w3.org/2000/svg">
<g clip-path="url(#clip0_3417_1649)">
<rect x="3" y="2" width="118" height="116" rx="23" stroke="white" stroke-width="4"/>
<rect x="15" y="14" width="93" height="92" rx="14" fill="url(#paint0_linear_3417_1649)"/>
</g>
<path d="M80.4 66H43.6C42.38 66 41.21 65.4731 40.3474 64.5355C39.4847 63.5978 39 62.3261 39 61C39 59.6739 39.4847 58.4022 40.3474 57.4645C41.21 56.5269 42.38 56 43.6 56H80.4C81.62 56 82.79 56.5269 83.6526 57.4645C84.5153 58.4022 85 59.6739 85 61C85 62.3261 84.5153 63.5978 83.6526 64.5355C82.79 65.4731 81.62 66 80.4 66Z" fill="white"/>
<path d="M80.4 81H43.6C42.38 81 41.21 80.4731 40.3474 79.5355C39.4847 78.5978 39 77.3261 39 76C39 74.6739 39.4847 73.4022 40.3474 72.4645C41.21 71.5269 42.38 71 43.6 71H80.4C81.62 71 82.79 71.5269 83.6526 72.4645C84.5153 73.4022 85 74.6739 85 76C85 77.3261 84.5153 78.5978 83.6526 79.5355C82.79 80.4731 81.62 81 80.4 81Z" fill="white"/>
<path d="M80.4 51H43.6C42.38 51 41.21 50.4731 40.3474 49.5355C39.4847 48.5978 39 47.3261 39 46C39 44.6739 39.4847 43.4022 40.3474 42.4645C41.21 41.5269 42.38 41 43.6 41H80.4C81.62 41 82.79 41.5269 83.6526 42.4645C84.5153 43.4022 85 44.6739 85 46C85 47.3261 84.5153 48.5978 83.6526 49.5355C82.79 50.4731 81.62 51 80.4 51Z" fill="white"/>
<defs>
<linearGradient id="paint0_linear_3417_1649" x1="61.5" y1="14" x2="61.5" y2="106" gradientUnits="userSpaceOnUse">
<stop stop-color="#FF0003"/>
<stop offset="1" stop-color="#570001"/>
</linearGradient>
<clipPath id="clip0_3417_1649">
<rect width="121.073" height="121.073" fill="white" transform="translate(1)"/>
</clipPath>
</defs>
</svg>
