<svg width="123" height="122" viewBox="0 0 123 122" fill="none" xmlns="http://www.w3.org/2000/svg">
<g clip-path="url(#clip0_3417_1554)">
<rect x="3" y="2" width="118" height="116" rx="23" stroke="white" stroke-width="4"/>
<rect x="15" y="14" width="93" height="92" rx="14" fill="url(#paint0_linear_3417_1554)"/>
</g>
<path d="M61.8251 38.9163C66.2251 38.9202 70.5238 40.2377 74.1703 42.6999L77.3051 39.5434C77.6092 39.2434 77.9952 39.0401 78.4146 38.9593C78.8341 38.8785 79.2681 38.9236 79.6618 39.0892C80.0566 39.2514 80.3946 39.527 80.6331 39.8809C80.8717 40.2349 81.0001 40.6515 81.0022 41.0783V51.8884C81.0022 52.4618 80.7744 53.0119 80.369 53.4173C79.9635 53.8228 79.4136 54.0505 78.8402 54.0505H68.0301C67.6033 54.0483 67.1867 53.9198 66.8327 53.6812C66.4787 53.4427 66.2033 53.1048 66.0411 52.71C65.8755 52.3163 65.8303 51.8824 65.9111 51.463C65.9919 51.0436 66.195 50.6575 66.495 50.3535L67.8355 49.0131C65.431 47.818 62.715 47.3985 60.062 47.8125C57.4091 48.2265 54.95 49.4534 53.024 51.3242C51.0979 53.195 49.7997 55.6173 49.3087 58.2571C48.8176 60.8968 49.1579 63.6239 50.2824 66.0622C51.4069 68.5004 53.2604 70.5297 55.587 71.87C57.9137 73.2102 60.5988 73.7955 63.2722 73.5451C65.9455 73.2946 68.4752 72.2206 70.5124 70.4715C72.5496 68.7224 73.9939 66.3842 74.6459 63.7796C74.7699 63.2113 75.0074 62.6739 75.344 62.1995C75.6805 61.7251 76.1093 61.3235 76.6047 61.0187C77.1001 60.7139 77.6519 60.5122 78.2271 60.4257C78.8023 60.3391 79.3891 60.3694 79.9522 60.5149C80.5154 60.6604 81.0435 60.9182 81.5047 61.2726C81.966 61.627 82.3511 62.0708 82.6368 62.5774C82.9226 63.0841 83.1032 63.643 83.1678 64.2211C83.2324 64.7992 83.1797 65.3843 83.0129 65.9416C82.0429 69.9286 79.9702 73.562 77.0318 76.4263C74.0935 79.2905 70.4083 81.2698 66.3978 82.1377C62.3873 83.0056 58.2134 82.7272 54.3537 81.3341C50.4941 79.941 47.1045 77.4895 44.5728 74.2603C42.041 71.0311 40.4694 67.1544 40.0377 63.0738C39.606 58.9933 40.3317 54.8737 42.1316 51.1862C43.9316 47.4987 46.7332 44.3923 50.2159 42.2224C53.6986 40.0526 57.7218 38.9068 61.8251 38.9163Z" fill="white"/>
<defs>
<linearGradient id="paint0_linear_3417_1554" x1="61.5" y1="14" x2="61.5" y2="106" gradientUnits="userSpaceOnUse">
<stop stop-color="#FF0003"/>
<stop offset="1" stop-color="#570001"/>
</linearGradient>
<clipPath id="clip0_3417_1554">
<rect width="121.073" height="121.073" fill="white" transform="translate(1)"/>
</clipPath>
</defs>
</svg>
