<svg width="122" height="122" viewBox="0 0 122 122" fill="none" xmlns="http://www.w3.org/2000/svg">
<g clip-path="url(#clip0_3417_1534)">
<rect x="2" y="2" width="118" height="116" rx="23" stroke="white" stroke-width="4"/>
<rect x="14" y="14" width="93" height="92" rx="14" fill="url(#paint0_linear_3417_1534)"/>
</g>
<path d="M78.8057 58.6058L44.2134 41.3096C43.8842 41.1438 43.5181 41.0648 43.1499 41.0803C42.7817 41.0957 42.4235 41.205 42.1094 41.3978C41.7953 41.5906 41.5357 41.8605 41.3553 42.1819C41.1748 42.5032 41.0795 42.8653 41.0784 43.2338V77.8262C41.0777 78.1936 41.1706 78.555 41.3484 78.8766C41.5262 79.1981 41.783 79.4691 42.0946 79.6638C42.4386 79.8771 42.8356 79.9895 43.2404 79.9882C43.5789 79.9862 43.9121 79.9047 44.2134 79.7504L78.8057 62.4542C79.1598 62.2728 79.457 61.9972 79.6646 61.6577C79.8721 61.3182 79.9819 60.9279 79.9819 60.53C79.9819 60.1321 79.8721 59.7418 79.6646 59.4023C79.457 59.0628 79.1598 58.7872 78.8057 58.6058Z" fill="white"/>
<defs>
<linearGradient id="paint0_linear_3417_1534" x1="60.5" y1="14" x2="60.5" y2="106" gradientUnits="userSpaceOnUse">
<stop stop-color="#FF0003"/>
<stop offset="1" stop-color="#570001"/>
</linearGradient>
<clipPath id="clip0_3417_1534">
<rect width="121.073" height="121.073" fill="white"/>
</clipPath>
</defs>
</svg>
