<svg width="123" height="122" viewBox="0 0 123 122" fill="none" xmlns="http://www.w3.org/2000/svg">
<g clip-path="url(#clip0_3417_1653)">
<rect x="3" y="2" width="118" height="116" rx="23" stroke="white" stroke-width="4"/>
<rect x="15" y="14" width="93" height="92" rx="14" fill="url(#paint0_linear_3417_1653)"/>
</g>
<path fill-rule="evenodd" clip-rule="evenodd" d="M85.5294 56.5882H80.8726C80.3824 54.3824 79.402 52.4216 78.4216 50.7059L81.6078 47.5196C82.098 47.0294 82.098 46.049 81.6078 45.5588L77.4411 41.3922C76.9509 40.902 75.9706 40.902 75.4804 41.3922L72.2941 44.5784C70.5784 43.3529 68.3725 42.6176 66.4117 42.1275V37.4706C66.4117 36.7353 65.6765 36 64.9412 36H59.0588C58.3235 36 57.5882 36.7353 57.5882 37.4706V42.1275C55.3824 42.6176 53.4215 43.598 51.7058 44.5784L48.5196 41.3922C48.0294 40.902 47.049 40.902 46.5588 41.3922L42.3921 45.5588C41.902 46.049 41.902 47.0294 42.3921 47.5196L45.5784 50.7059C44.3529 52.4216 43.6176 54.6275 43.1274 56.5882H38.4706C37.7353 56.5882 37 57.3235 37 58.0588V63.9412C37 64.6765 37.7353 65.4118 38.4706 65.4118H43.1274C43.6176 67.6176 44.598 69.5784 45.5784 71.2941L42.3921 74.4804C41.902 74.9706 41.902 75.951 42.3921 76.4412L46.5588 80.6078C47.049 81.098 48.0294 81.098 48.5196 80.6078L51.7058 77.4216C53.4215 78.6471 55.6275 79.3824 57.5882 79.8725V84.5294C57.5882 85.2647 58.3235 86 59.0588 86H64.9412C65.6765 86 66.4117 85.2647 66.4117 84.5294V79.8725C68.6176 79.3824 70.5784 78.402 72.2941 77.4216L75.4804 80.6078C75.9706 81.098 76.9509 81.098 77.4411 80.6078L81.6078 76.4412C82.098 75.951 82.098 74.9706 81.6078 74.4804L78.4216 71.2941C79.6471 69.5784 80.3824 67.3725 80.8726 65.4118H85.5294C86.2647 65.4118 87 64.6765 87 63.9412V58.0588C87 57.0784 86.2647 56.5882 85.5294 56.5882ZM62.2451 69.0882C57.8333 69.0882 54.1568 65.4118 54.1568 61C54.1568 56.5882 57.8333 52.9118 62.2451 52.9118C66.6569 52.9118 70.3333 56.5882 70.3333 61C70.3333 65.4118 66.6569 69.0882 62.2451 69.0882Z" fill="white"/>
<defs>
<linearGradient id="paint0_linear_3417_1653" x1="61.5" y1="14" x2="61.5" y2="106" gradientUnits="userSpaceOnUse">
<stop stop-color="#FF0003"/>
<stop offset="1" stop-color="#570001"/>
</linearGradient>
<clipPath id="clip0_3417_1653">
<rect width="121.073" height="121.073" fill="white" transform="translate(1)"/>
</clipPath>
</defs>
</svg>
