<svg width="628" height="154" viewBox="0 0 628 154" fill="none" xmlns="http://www.w3.org/2000/svg">
<g clip-path="url(#clip0_3714_5296)">
<rect opacity="0.4" x="19" y="14" width="591" height="126" rx="14" fill="url(#paint0_linear_3714_5296)"/>
<rect opacity="0.5" x="42" y="14" width="547" height="126" rx="14" fill="url(#paint1_linear_3714_5296)"/>
<rect x="89" y="14" width="451" height="126" rx="14" fill="url(#paint2_linear_3714_5296)"/>
<rect x="2" y="2" width="624" height="150" rx="23" stroke="white" stroke-width="4"/>
<path d="M225.956 92.6905V92.748C225.956 92.8055 225.956 92.9205 225.956 92.978C225.956 93.0355 225.956 93.0355 225.898 93.093C225.898 93.1505 225.898 93.208 225.898 93.208C225.898 93.2656 225.898 93.2656 225.898 93.3231C225.898 93.3806 225.898 93.4381 225.841 93.5531C225.841 93.4956 225.841 93.4956 225.898 93.4956C225.841 93.5531 225.841 93.6106 225.841 93.6681C225.783 93.7256 225.783 93.7256 225.783 93.7831C225.841 93.6681 225.841 93.6106 225.841 93.5531C225.783 93.8981 225.726 94.0707 225.611 94.3582C225.611 94.3007 225.611 94.2432 225.668 94.1857C225.668 94.2432 225.668 94.2432 225.611 94.2432C225.611 94.3007 225.611 94.3582 225.553 94.4157V94.4732C225.553 94.4157 225.553 94.4157 225.611 94.3582C225.553 94.4157 225.553 94.4157 225.553 94.4732C225.496 94.5307 225.496 94.5882 225.438 94.6457C225.438 94.6457 225.438 94.7033 225.381 94.7033C225.381 94.7608 225.381 94.7608 225.323 94.8183C225.323 94.8758 225.323 94.8758 225.266 94.9333C225.266 94.8758 225.323 94.8758 225.323 94.8758C225.266 94.9333 225.266 94.9908 225.208 94.9908L225.266 94.9333L225.208 94.9908C225.151 95.0483 225.151 95.1058 225.093 95.1633C225.036 95.2208 225.036 95.2783 224.978 95.2783C224.921 95.3358 224.921 95.3934 224.863 95.3934V95.4509V95.3934C224.863 95.4509 224.806 95.5084 224.748 95.5084C224.748 95.5659 224.691 95.6234 224.633 95.6234C224.633 95.6809 224.576 95.6809 224.576 95.6809C224.576 95.7384 224.576 95.7384 224.576 95.7384C220.723 99.2464 215.202 101.317 209.796 101.317C198.064 101.317 188.518 91.7703 188.518 80.0387C188.518 68.307 198.064 58.7606 209.796 58.7606C215.317 58.7606 220.55 60.8884 224.518 64.7415C226.071 66.1792 226.128 68.652 224.633 70.1473C223.885 70.9524 222.85 71.3549 221.873 71.3549C220.895 71.3549 219.917 71.0099 219.17 70.2623C216.639 67.8469 213.304 66.4667 209.796 66.4667C202.262 66.4667 196.224 72.5626 196.224 80.0387C196.224 87.5147 202.262 93.6106 209.796 93.6106C212.844 93.6106 215.892 92.633 218.25 90.9652V84.2368H208.358C206.23 84.2368 204.505 82.5115 204.505 80.3837C204.505 78.2559 206.23 76.5307 208.358 76.5307H222.103C224.231 76.5307 225.956 78.2559 225.956 80.3837V92.6905ZM225.783 93.8406V93.7831C225.783 93.7831 225.783 93.7831 225.783 93.8406ZM272.236 94.9908C273.214 96.8886 272.466 99.1889 270.569 100.167C268.671 101.144 266.313 100.339 265.393 98.4413L262.69 93.1505H240.837L238.134 98.4413C237.501 99.8215 236.121 100.569 234.741 100.569C231.866 100.569 229.968 97.5212 231.291 94.9908L248.313 61.406C248.371 61.3485 248.371 61.291 248.428 61.2335C248.428 61.176 248.486 61.176 248.486 61.1185C248.658 60.8884 248.831 60.6584 249.061 60.4284C249.061 60.3709 249.118 60.3709 249.176 60.3134C249.233 60.2558 249.291 60.1983 249.348 60.1408C249.406 60.1408 249.463 60.0833 249.521 60.0258C249.578 59.9683 249.636 59.9683 249.693 59.9108C249.923 59.7383 250.211 59.6233 250.498 59.5082C250.556 59.5082 250.556 59.5082 250.613 59.5082C250.671 59.4507 250.786 59.4507 250.843 59.3932C250.958 59.3932 251.016 59.3932 251.073 59.3932C251.131 59.3357 251.188 59.3357 251.246 59.3357C251.418 59.3357 251.591 59.3357 251.706 59.3357C251.763 59.2782 251.763 59.2782 251.763 59.2782L251.821 59.3357C251.936 59.3357 252.109 59.3357 252.224 59.3357C252.224 59.3357 252.281 59.3357 252.339 59.3357C252.454 59.3932 252.569 59.3932 252.741 59.4507H252.799C252.914 59.5082 253.086 59.5082 253.201 59.5657C253.259 59.6233 253.316 59.6233 253.316 59.6233C253.374 59.6808 253.431 59.6808 253.489 59.7383C253.546 59.7383 253.604 59.7383 253.604 59.7958C253.661 59.7958 253.719 59.8533 253.719 59.8533C253.834 59.9108 253.949 59.9683 254.064 60.0833C254.581 60.4859 254.984 60.9459 255.271 61.521C255.214 61.521 255.214 61.4635 255.214 61.4635L272.236 94.9908ZM244.805 85.4444H258.722L251.763 71.7L244.805 85.4444ZM319.248 63.0162C319.248 63.0737 319.248 63.1313 319.248 63.1888V96.716C319.248 98.8438 317.523 100.569 315.395 100.569C313.268 100.569 311.542 98.8438 311.542 96.716V74.6329L301.651 87.6297C301.593 87.6873 301.536 87.7448 301.478 87.8598C301.421 87.8598 301.421 87.8598 301.421 87.8598C300.098 89.4125 298.315 89.47 296.935 88.7799C296.878 88.7799 296.878 88.7224 296.82 88.7224C296.763 88.7224 296.763 88.6649 296.705 88.6649C296.59 88.6074 296.418 88.4924 296.303 88.3774C296.245 88.3774 296.245 88.3774 296.245 88.3774C296.188 88.3198 296.188 88.3198 296.188 88.3198C296.015 88.2048 295.843 88.0323 295.67 87.8598C295.67 87.8023 295.613 87.8023 295.613 87.7448C295.555 87.6873 295.498 87.6297 295.44 87.5722L286.181 74.9204V96.716C286.181 98.8438 284.456 100.569 282.328 100.569C280.2 100.569 278.475 98.8438 278.475 96.716V63.1888C278.475 63.1313 278.475 63.0737 278.475 63.0737C278.475 62.9587 278.475 62.9012 278.475 62.8437C278.475 62.7862 278.475 62.7287 278.475 62.6712C278.475 62.6137 278.475 62.6137 278.475 62.5562C278.533 62.3261 278.59 62.1536 278.648 61.9236L278.705 61.8661C278.763 61.636 278.878 61.4635 278.993 61.2335V61.176C279.108 61.0035 279.28 60.8309 279.395 60.6584C279.453 60.6009 279.453 60.6009 279.51 60.5434C279.568 60.4859 279.625 60.4284 279.683 60.3709C279.798 60.2558 279.913 60.1983 279.97 60.0833C280.028 60.0833 280.028 60.0833 280.028 60.0833C280.143 59.9683 280.315 59.9108 280.43 59.7958H280.488C280.603 59.7383 280.718 59.6808 280.775 59.6233C280.833 59.6233 280.833 59.6233 280.833 59.6233C281.006 59.5657 281.178 59.5082 281.351 59.4507C281.408 59.4507 281.408 59.4507 281.466 59.4507C281.523 59.3932 281.581 59.3932 281.638 59.3932C281.696 59.3932 281.753 59.3932 281.811 59.3357C281.926 59.3357 281.983 59.3357 282.098 59.3357C282.098 59.3357 282.156 59.3357 282.213 59.3357C282.213 59.3357 282.271 59.3357 282.328 59.3357C282.501 59.3357 282.673 59.3357 282.846 59.3932H282.903C283.133 59.3932 283.363 59.4507 283.536 59.5657C283.593 59.5657 283.593 59.5657 283.651 59.5657C283.823 59.6233 284.053 59.7383 284.226 59.8533C284.283 59.8533 284.283 59.9108 284.341 59.9108C284.514 60.0258 284.686 60.1408 284.859 60.3134C284.859 60.3134 284.916 60.3134 284.916 60.3709C285.089 60.4859 285.261 60.6584 285.376 60.8884C285.376 60.8884 285.376 60.8884 285.434 60.8884L298.603 78.831L312.347 60.8309C312.405 60.7734 312.405 60.7734 312.405 60.7159H312.462C312.578 60.5434 312.693 60.4284 312.808 60.3134C312.865 60.3134 312.865 60.2558 312.865 60.2558C313.038 60.0833 313.268 59.9683 313.44 59.8533C313.44 59.8533 313.498 59.8533 313.498 59.7958C313.728 59.7383 313.9 59.6233 314.13 59.5657L314.188 59.5082C314.418 59.4507 314.59 59.3932 314.82 59.3932C314.878 59.3932 314.878 59.3357 314.935 59.3357C315.05 59.3357 315.223 59.3357 315.395 59.3357C315.453 59.3357 315.51 59.3357 315.568 59.3357C315.568 59.3357 315.625 59.3357 315.683 59.3357C315.74 59.3357 315.798 59.3357 315.913 59.3357C315.97 59.3932 316.028 59.3932 316.086 59.3932C316.143 59.3932 316.201 59.3932 316.316 59.4507H316.373C316.488 59.5082 316.603 59.5082 316.718 59.5657C316.776 59.5657 316.833 59.6233 316.948 59.6233C317.006 59.6808 317.063 59.7383 317.178 59.7383C317.236 59.7958 317.293 59.7958 317.351 59.8533C317.408 59.9108 317.466 59.9108 317.523 59.9683C317.581 60.0258 317.638 60.0833 317.696 60.0833C317.696 60.0833 317.696 60.0833 317.753 60.1408C317.811 60.1983 317.868 60.1983 317.868 60.2558C317.926 60.2558 317.926 60.2558 317.926 60.3134C318.041 60.4284 318.156 60.4859 318.271 60.6009C318.271 60.6584 318.328 60.6584 318.328 60.6584C318.443 60.8309 318.616 61.061 318.731 61.2335V61.291C318.846 61.4635 318.961 61.6935 319.018 61.9236C319.018 61.9236 319.018 61.9236 319.076 61.9811C319.133 62.1536 319.191 62.3836 319.191 62.6137C319.191 62.6712 319.191 62.6712 319.191 62.7287C319.248 62.7862 319.248 62.8437 319.248 62.9587V63.0162ZM354.513 92.863C356.641 92.863 358.366 94.5882 358.366 96.716C358.366 98.8438 356.641 100.569 354.513 100.569H332.142C330.015 100.569 328.289 98.8438 328.289 96.716V63.1888C328.289 61.061 330.015 59.3357 332.142 59.3357H354.513C356.641 59.3357 358.366 61.061 358.366 63.1888C358.366 65.3166 356.641 67.0418 354.513 67.0418H335.995V76.1281H351.235C353.363 76.1281 355.088 77.8534 355.088 79.9812C355.088 82.109 353.363 83.8342 351.235 83.8342H335.995V92.863H354.513ZM404.479 75.4955L402.696 84.6968H410.575V88.5499H401.949L399.591 100.569H395.508L397.866 88.5499H389.642L387.399 100.569H383.374L385.559 88.5499H378.313V84.6968H386.307L388.147 75.4955H380.441V71.7H388.837L391.137 59.5082H395.278L392.978 71.7H401.259L403.559 59.5082H407.527L405.227 71.7H412.53V75.4955H404.479ZM390.39 84.6968H398.613L400.396 75.4955H392.172L390.39 84.6968ZM420.149 69.4572C418.482 69.4572 416.986 68.422 416.469 66.8118C415.779 64.799 416.929 62.6137 418.942 61.9236L427.51 59.1632C427.683 59.1057 427.913 59.0482 428.143 58.9907C428.258 58.9907 428.43 58.9332 428.545 58.9332H428.603C428.66 58.9332 428.718 58.9332 428.776 58.9332C428.776 58.9332 428.776 58.9332 428.833 58.9332C430.443 58.9332 431.996 59.9683 432.514 61.5785C432.686 62.0961 432.744 62.6712 432.686 63.1313V96.371C432.686 98.4988 430.961 100.224 428.833 100.224C426.705 100.224 424.98 98.4988 424.98 96.371V68.077L421.299 69.2846C420.897 69.3996 420.494 69.4572 420.149 69.4572Z" fill="white"/>
</g>
<defs>
<linearGradient id="paint0_linear_3714_5296" x1="314.5" y1="14" x2="314.5" y2="140" gradientUnits="userSpaceOnUse">
<stop stop-color="#0094FF"/>
<stop offset="1" stop-color="#002D57"/>
</linearGradient>
<linearGradient id="paint1_linear_3714_5296" x1="315.5" y1="14" x2="315.5" y2="140" gradientUnits="userSpaceOnUse">
<stop stop-color="#0094FF"/>
<stop offset="1" stop-color="#002D57"/>
</linearGradient>
<linearGradient id="paint2_linear_3714_5296" x1="314.5" y1="14" x2="314.5" y2="140" gradientUnits="userSpaceOnUse">
<stop stop-color="#0094FF"/>
<stop offset="1" stop-color="#002D57"/>
</linearGradient>
<clipPath id="clip0_3714_5296">
<rect width="628" height="154" fill="white"/>
</clipPath>
</defs>
</svg>
